<?xml version="1.0" standalone="no"?>
<!DOCTYPE svg PUBLIC "-//W3C//DTD SVG 20010904//EN"
 "http://www.w3.org/TR/2001/REC-SVG-20010904/DTD/svg10.dtd">
<svg version="1.0" xmlns="http://www.w3.org/2000/svg"
 width="1920.000000pt" height="1920.000000pt" viewBox="0 0 1920.000000 1920.000000"
 preserveAspectRatio="xMidYMid meet">
<metadata>
Created by potrace 1.14, written by Peter Selinger 2001-2017
</metadata>
<g transform="translate(0.000000,1920.000000) scale(0.100000,-0.100000)"
fill="#000000" stroke="none">
<path d="M9500 18514 c-188 -8 -529 -34 -616 -48 -49 -8 -134 -19 -189 -26
-124 -15 -507 -91 -635 -125 -52 -15 -126 -34 -165 -44 -164 -43 -261 -73
-440 -136 -104 -37 -212 -75 -240 -85 -27 -10 -90 -35 -140 -57 -49 -22 -121
-53 -160 -68 -138 -57 -603 -295 -756 -387 -570 -347 -989 -670 -1409 -1091
-231 -231 -343 -348 -412 -433 -31 -38 -92 -112 -136 -164 -97 -116 -296 -383
-378 -505 -205 -307 -338 -522 -392 -635 -6 -14 -34 -65 -62 -115 -43 -78
-112 -216 -180 -360 -11 -22 -35 -78 -55 -125 -20 -47 -44 -103 -55 -125 -11
-22 -54 -130 -96 -240 -134 -353 -222 -643 -324 -1068 -22 -92 -45 -200 -50
-240 -6 -39 -19 -112 -30 -162 -44 -207 -92 -669 -107 -1044 -9 -226 6 -214
-273 -240 -156 -14 -294 -93 -378 -216 -68 -98 -92 -163 -104 -280 -10 -98
-31 -178 -69 -263 -37 -79 -132 -423 -149 -537 -5 -33 -18 -103 -28 -155 -11
-52 -25 -144 -31 -205 -6 -60 -16 -153 -22 -205 -20 -195 -23 -608 -5 -828 23
-289 33 -375 61 -547 57 -342 83 -464 166 -775 46 -173 177 -589 205 -655 7
-16 39 -95 70 -175 30 -79 75 -187 98 -240 24 -52 72 -159 107 -238 35 -78 81
-164 102 -190 136 -167 228 -228 384 -256 57 -11 97 -13 135 -7 29 5 94 12
143 15 50 4 157 14 238 23 170 19 155 25 187 -77 52 -165 262 -619 414 -895
195 -354 522 -831 711 -1040 20 -22 49 -56 63 -75 44 -57 156 -175 341 -360
344 -343 599 -548 980 -784 381 -237 649 -363 1111 -519 525 -179 1346 -275
2094 -247 379 14 693 42 1011 90 72 11 172 24 224 30 179 20 638 121 1066 234
189 50 398 117 601 192 99 36 194 71 213 76 52 15 384 160 544 237 328 160
743 418 1037 647 552 430 1033 954 1460 1594 46 69 100 150 120 180 52 77 264
445 325 562 46 91 52 98 80 98 37 0 265 -24 435 -45 69 -8 177 -20 240 -25 63
-6 170 -17 237 -25 67 -8 145 -15 173 -15 74 0 206 36 256 71 23 16 47 29 52
29 6 0 35 27 65 61 64 70 119 174 148 280 11 41 45 124 75 186 30 62 54 116
54 121 0 5 20 51 44 103 40 86 58 132 151 379 28 75 71 210 150 475 105 355
184 854 226 1435 12 176 6 617 -11 790 -5 52 -14 149 -20 215 -6 66 -18 163
-25 215 -8 52 -22 147 -30 210 -14 104 -49 280 -76 385 -6 22 -19 74 -30 115
-10 41 -19 108 -19 149 0 138 -65 294 -164 395 -109 111 -218 153 -460 177
-115 11 -132 15 -152 36 -21 22 -39 78 -30 92 3 4 1 79 -5 166 -5 88 -13 243
-19 345 -6 102 -17 232 -25 290 -7 58 -19 152 -25 210 -25 236 -110 643 -215
1035 -99 370 -246 773 -413 1130 -165 352 -276 564 -417 790 -34 55 -79 129
-101 165 -149 251 -509 724 -724 956 -30 32 -82 88 -115 124 -240 261 -587
584 -778 723 -29 21 -65 51 -82 66 -84 78 -546 398 -720 498 -38 22 -128 74
-200 115 -71 42 -215 117 -320 167 -104 51 -217 106 -250 122 -33 16 -63 29
-67 29 -4 0 -31 11 -60 24 -29 13 -102 42 -163 65 -60 24 -137 53 -170 66 -86
34 -288 102 -370 124 -38 11 -117 33 -175 50 -58 17 -145 40 -195 51 -49 11
-126 29 -170 39 -231 56 -698 123 -990 140 -195 12 -585 20 -725 15z m-90
-1163 c0 -5 -15 -21 -33 -37 -31 -27 -110 -120 -198 -233 -138 -177 -303 -494
-388 -747 l-61 -179 -42 3 c-24 1 -164 27 -313 57 -525 105 -671 126 -875 124
-154 -1 -166 -5 -163 -53 3 -43 50 -141 96 -201 18 -22 92 -109 165 -193 215
-247 221 -256 350 -532 126 -273 196 -605 195 -935 0 -343 -55 -555 -199 -778
-182 -279 -463 -454 -1049 -652 -569 -192 -1143 -503 -1650 -894 -274 -211
-602 -519 -821 -771 l-108 -125 -51 -2 c-27 -1 -88 -6 -135 -12 -46 -6 -105
-11 -131 -11 -30 0 -55 -6 -68 -18 -21 -16 -22 -21 -12 -81 6 -35 13 -116 16
-180 4 -64 15 -195 26 -291 11 -96 26 -238 34 -315 7 -77 20 -189 29 -250 8
-60 20 -171 26 -245 6 -74 17 -184 26 -245 8 -60 24 -195 35 -300 12 -104 25
-226 30 -270 5 -44 14 -132 19 -195 5 -63 19 -182 29 -265 11 -82 24 -197 30
-255 11 -120 64 -607 86 -785 8 -66 17 -154 20 -195 4 -41 17 -165 30 -275 13
-110 29 -252 35 -315 6 -63 18 -164 26 -225 7 -60 18 -164 24 -230 5 -66 16
-176 25 -245 21 -175 53 -463 59 -536 l5 -62 -57 1 c-31 0 -84 0 -117 0 -33 0
-71 0 -85 0 -14 0 -32 -3 -42 -7 -11 -5 -18 -2 -22 11 -10 33 -44 297 -51 393
-4 52 -16 169 -26 260 -11 91 -24 210 -29 265 -5 55 -16 161 -25 235 -8 74
-22 203 -30 285 -8 83 -19 191 -25 240 -26 229 -31 284 -40 403 -5 70 -18 201
-30 292 -27 227 -48 417 -65 600 -8 85 -24 238 -35 340 -12 102 -27 244 -35
315 -39 369 -58 551 -80 755 -14 124 -29 275 -34 335 -6 61 -17 166 -25 235
-8 69 -20 186 -26 260 -6 74 -20 180 -30 234 -53 276 -51 456 14 991 50 413
172 908 337 1365 62 173 68 189 89 231 11 21 20 43 20 50 0 30 252 553 337
699 11 19 36 62 55 95 19 33 53 89 76 125 23 36 67 106 98 155 191 302 511
697 802 990 374 378 855 751 1277 992 55 32 114 67 132 79 63 43 462 235 633
305 164 67 510 189 537 189 7 0 45 11 85 24 68 22 254 67 478 116 85 18 204
37 438 71 66 9 247 24 345 28 20 0 37 -3 37 -8z m960 -16 c181 -19 373 -49
555 -86 170 -35 456 -107 468 -118 4 -4 -40 -18 -99 -30 -272 -58 -612 -218
-856 -402 -123 -93 -404 -360 -454 -431 -53 -76 -53 -66 12 277 97 515 125
671 140 773 5 31 7 32 52 32 26 0 108 -7 182 -15z m1592 -400 c29 -13 112 -50
183 -81 186 -80 510 -250 685 -359 313 -195 627 -426 836 -613 248 -224 374
-346 500 -487 202 -225 242 -273 330 -390 50 -66 116 -154 147 -195 123 -162
303 -443 398 -622 39 -73 75 -137 79 -143 15 -20 180 -352 210 -425 130 -311
236 -605 304 -845 62 -220 76 -274 87 -340 6 -38 15 -80 20 -92 16 -43 70
-360 94 -549 60 -476 66 -739 24 -1009 -11 -71 -24 -182 -29 -245 -6 -63 -17
-182 -25 -265 -8 -82 -26 -263 -40 -401 -13 -138 -28 -288 -34 -335 -5 -46
-12 -120 -16 -164 -3 -44 -17 -186 -30 -315 -13 -129 -31 -309 -40 -400 -9
-91 -22 -228 -30 -305 -8 -77 -19 -192 -25 -255 -7 -63 -15 -151 -20 -195 -4
-44 -15 -161 -24 -260 -9 -99 -23 -241 -31 -315 -8 -74 -17 -173 -20 -220 -4
-47 -15 -161 -26 -255 -11 -93 -24 -224 -29 -290 -6 -66 -17 -181 -25 -255 -8
-74 -21 -211 -30 -305 -9 -93 -24 -249 -35 -345 -10 -96 -22 -211 -25 -256 -4
-44 -10 -95 -14 -114 l-6 -33 -37 31 c-27 25 -45 32 -76 32 -22 0 -62 7 -90
16 -40 13 -60 14 -89 7 -21 -6 -45 -12 -53 -14 -22 -6 -24 62 -6 200 8 64 20
168 26 231 6 63 22 223 35 355 14 132 30 287 36 345 5 58 14 139 19 180 6 41
19 172 30 290 12 118 23 224 25 235 3 11 9 76 15 145 12 150 26 293 45 455 7
66 19 176 25 245 6 69 18 170 26 225 7 55 18 163 24 240 6 77 17 194 25 260 8
66 26 230 40 365 53 536 65 650 80 775 8 72 22 207 30 300 9 94 22 220 29 280
16 124 24 221 31 375 3 58 7 128 10 156 8 65 0 71 -106 86 -111 16 -202 14
-269 -7 -30 -9 -64 -18 -75 -21 -16 -4 -42 20 -125 118 -142 165 -541 566
-720 720 -397 345 -918 716 -1270 905 -41 22 -124 68 -184 101 -60 34 -154 80
-210 103 -158 66 -390 167 -516 224 -439 201 -657 411 -722 697 -45 199 -20
488 61 691 90 227 253 458 444 630 108 98 316 254 397 299 36 20 101 56 145
80 134 75 270 142 478 233 109 49 194 91 190 96 -9 9 -242 49 -423 73 -385 52
-864 75 -1225 59 -132 -6 -242 -9 -244 -7 -5 5 16 31 209 259 277 328 320 377
415 488 50 57 98 114 107 125 23 28 36 28 100 -3z m-5442 -8626 c-30 -3 -68
-9 -85 -13 -29 -6 -29 -6 -5 5 34 15 111 27 130 20 8 -3 -10 -9 -40 -12z m80
7 c0 -3 -4 -8 -10 -11 -5 -3 -10 -1 -10 4 0 6 5 11 10 11 6 0 10 -2 10 -4z
m30 -5 c0 -5 -7 -14 -15 -21 -10 -9 -15 -9 -15 -1 0 6 5 11 11 11 5 0 7 5 4
10 -3 6 -1 10 4 10 6 0 11 -4 11 -9z m83 -28 c50 -25 167 -153 141 -153 -5 0
-15 13 -22 29 -9 19 -18 28 -28 24 -8 -3 -14 1 -14 10 0 9 -9 22 -20 30 -11 8
-17 17 -13 20 3 4 1 7 -5 7 -6 0 -16 -8 -22 -17 -10 -15 -11 -15 -6 -2 5 19
-32 59 -57 59 -9 0 -19 5 -23 11 -8 13 25 4 69 -18z m-132 0 c13 -16 12 -17
-3 -4 -10 7 -18 15 -18 17 0 8 8 3 21 -13z m-196 -9 c-26 -20 -55 -36 -55 -30
0 5 63 46 70 46 3 -1 -4 -8 -15 -16z m275 -1 c0 -5 -12 -9 -27 -10 -19 -1 -22
1 -12 8 17 11 39 12 39 2z m-247 -20 c-7 -2 -19 -2 -25 0 -7 3 -2 5 12 5 14 0
19 -2 13 -5z m-103 -38 c-10 -12 -10 -15 0 -15 8 0 11 -3 7 -6 -3 -3 -11 -3
-17 1 -8 5 -8 11 1 21 6 8 14 14 16 14 3 0 0 -7 -7 -15z m-49 -48 l-24 -22 19
27 c10 14 21 24 23 22 3 -3 -6 -15 -18 -27z m569 -37 c0 -5 -4 -10 -10 -10 -5
0 -10 5 -10 10 0 6 5 10 10 10 6 0 10 -4 10 -10z m-580 -45 c0 -5 -5 -3 -10 5
-5 8 -10 20 -10 25 0 6 5 3 10 -5 5 -8 10 -19 10 -25z m628 -2 c18 -64 22
-116 12 -153 -8 -30 -9 -28 -5 20 3 30 2 50 -2 43 -5 -6 -8 11 -8 38 0 27 -4
53 -10 57 -13 9 -18 32 -7 32 5 0 14 -17 20 -37z m5907 28 c-3 -2 1 -11 8 -19
11 -14 9 -14 -13 0 -14 8 -47 16 -75 17 -27 1 -52 4 -54 7 -3 2 28 3 67 2 39
-1 69 -4 67 -7z m-5951 -17 c3 -8 2 -12 -4 -9 -6 3 -10 10 -10 16 0 14 7 11
14 -7z m5810 7 c4 -5 -4 -7 -16 -4 -19 4 -20 3 -8 -6 9 -7 10 -11 3 -11 -15 0
-25 15 -16 24 9 9 31 7 37 -3z m176 -1 c0 -5 7 -7 15 -4 8 4 15 4 15 1 0 -13
-30 -14 -40 -1 -9 10 -9 14 -1 14 6 0 11 -4 11 -10z m-6590 -25 c0 -8 -3 -16
-7 -18 -5 -3 -8 5 -8 18 0 13 3 21 8 18 4 -2 7 -10 7 -18z m6328 1 c-14 -10
-15 -15 -5 -26 10 -10 9 -11 -2 -5 -11 6 -13 3 -9 -13 4 -12 3 -24 -1 -26 -4
-3 -8 5 -8 16 -3 30 -11 34 -31 13 -14 -15 -15 -17 -1 -12 9 3 16 0 16 -8 0
-10 -5 -11 -18 -4 -19 10 -32 -2 -34 -34 -1 -10 -7 -23 -14 -30 -10 -9 -11 -8
-5 7 5 13 4 17 -4 12 -49 -30 44 72 98 108 29 19 43 21 18 2z m412 -62 c14
-16 18 -23 9 -16 -9 6 -19 9 -22 5 -4 -3 -7 -1 -7 6 0 7 -5 9 -12 5 -7 -5 -8
-3 -4 5 5 7 0 19 -10 27 -18 14 -18 15 1 5 11 -5 31 -22 45 -37z m-6740 16 c0
-5 -5 -10 -11 -10 -5 0 -7 5 -4 10 3 6 8 10 11 10 2 0 4 -4 4 -10z m617 -52
c-3 -8 -6 -5 -6 6 -1 11 2 17 5 13 3 -3 4 -12 1 -19z m6158 -16 c-3 -3 -11 0
-18 7 -9 10 -8 11 6 5 10 -3 15 -9 12 -12z m-6767 -17 c-3 -3 -9 2 -12 12 -6
14 -5 15 5 6 7 -7 10 -15 7 -18z m6782 -7 c0 -19 2 -24 18 -41 24 -27 29 -175
7 -232 -9 -25 -21 -45 -26 -45 -6 0 -8 4 -5 9 4 5 3 11 -1 14 -5 2 -2 2 5 1 6
-2 12 1 12 6 0 19 2 25 10 35 12 15 12 165 -1 165 -6 0 -8 8 -5 18 8 25 -27
62 -54 57 -16 -3 -19 -1 -11 8 11 14 51 17 51 5z m-6796 -32 c3 -16 2 -25 -1
-22 -4 4 -9 19 -11 34 -2 15 -1 24 2 22 3 -3 7 -18 10 -34z m620 16 c3 -5 -1
-9 -9 -9 -8 0 -12 4 -9 9 3 4 7 8 9 8 2 0 6 -4 9 -8z m5564 -17 c-6 -14 -13
-23 -15 -21 -5 5 15 46 22 46 3 0 -1 -11 -7 -25z m-5572 -30 c0 -14 -4 -25 -8
-25 -10 0 -10 13 -2 34 9 23 12 20 10 -9z m41 -7 c-3 -8 -6 -5 -6 6 -1 11 2
17 5 13 3 -3 4 -12 1 -19z m6138 12 c3 -5 1 -10 -4 -10 -6 0 -11 5 -11 10 0 6
2 10 4 10 3 0 8 -4 11 -10z m-627 -82 c0 -40 2 -84 5 -98 2 -14 5 -29 6 -35 1
-5 6 -3 12 5 9 12 10 12 5 -3 -3 -10 -6 -24 -6 -30 -1 -20 -26 45 -34 86 -6
34 1 147 9 147 2 0 3 -33 3 -72z m-6127 19 c-5 -5 -7 -16 -4 -24 4 -11 8 -10
18 3 13 18 50 30 39 13 -3 -5 -9 -7 -14 -4 -11 7 -32 -30 -23 -39 3 -3 11 2
18 11 8 11 14 12 19 5 3 -6 -2 -16 -13 -21 -16 -9 -23 -6 -40 15 -11 14 -17
32 -14 41 5 12 3 14 -7 8 -8 -5 -11 -4 -6 3 4 6 14 8 22 5 10 -4 12 -9 5 -16z
m584 -18 c-8 -14 -22 -32 -32 -40 -17 -13 -17 -13 0 7 9 11 17 24 17 29 0 4
-8 1 -17 -6 -15 -11 -16 -11 -6 0 6 7 9 19 7 26 -4 9 3 12 19 11 23 -1 24 -3
12 -27z m-463 -57 c-4 -11 -1 -13 8 -7 9 5 11 4 6 -4 -6 -9 -11 -9 -22 0 -18
15 -18 26 0 26 8 0 12 -6 8 -15z m418 -7 c0 -2 -5 -7 -12 -11 -7 -4 -8 -3 -4
4 7 11 -6 17 -27 13 -5 -1 -6 3 -2 9 6 9 45 -3 45 -15z m-492 3 c-2 -7 4 -13
12 -13 8 0 14 7 12 15 -3 11 2 10 17 -4 15 -13 18 -23 11 -31 -5 -6 -6 -16 -2
-20 4 -5 -10 4 -30 19 -21 16 -35 32 -32 37 8 13 14 11 12 -3z m462 -16 c0 -5
-9 -17 -20 -27 -11 -10 -20 -16 -20 -12 0 3 -3 13 -7 22 -5 14 -2 16 17 10 15
-5 20 -4 16 4 -4 6 -2 11 3 11 6 0 11 -4 11 -8z m-359 -49 c12 -16 12 -17 -2
-6 -9 7 -19 10 -22 6 -4 -3 -7 -1 -7 5 0 17 16 15 31 -5z m105 -2 c-4 -5 -3
-11 1 -14 5 -2 2 -2 -6 0 -8 2 -17 -1 -20 -6 -7 -11 -61 -2 -61 10 0 5 11 4
25 -1 14 -6 25 -6 25 0 0 4 8 11 18 13 9 3 18 5 20 6 2 0 1 -3 -2 -8z m124
-26 c0 -5 -50 2 -56 8 -5 4 -1 5 9 1 13 -5 16 -2 11 11 -6 16 -5 16 14 -1 12
-10 22 -19 22 -19z m15 25 c4 -6 11 -7 17 -4 7 4 8 2 4 -5 -6 -9 -12 -9 -24 1
-10 7 -19 14 -21 15 -2 2 1 3 7 3 6 0 14 -5 17 -10z m5788 -5 c-3 -9 -8 -14
-10 -11 -3 3 -2 9 2 15 9 16 15 13 8 -4z m547 -30 c0 -2 -6 -5 -13 -8 -8 -3
-14 1 -14 8 0 7 6 11 14 8 7 -3 13 -6 13 -8z m-6417 -2 c-7 -2 -21 -2 -30 0
-10 3 -4 5 12 5 17 0 24 -2 18 -5z m5863 -31 c-15 -15 -15 -15 -4 10 7 15 15
23 17 17 2 -6 -4 -18 -13 -27z m577 -12 c-7 -28 -29 -44 -39 -29 -4 8 -3 9 4
5 8 -4 16 3 22 18 11 31 20 35 13 6z m-559 -5 c-4 -8 -11 -15 -16 -15 -6 0 -5
6 2 15 7 8 14 15 16 15 2 0 1 -7 -2 -15z m51 -5 c3 -5 1 -10 -4 -10 -6 0 -11
5 -11 10 0 6 2 10 4 10 3 0 8 -4 11 -10z m-24 -27 c13 -16 12 -17 -3 -4 -10 7
-18 15 -18 17 0 8 8 3 21 -13z m16 -25 c3 8 11 5 23 -10 10 -13 22 -19 26 -15
5 4 2 12 -6 17 -8 5 -12 11 -9 14 3 4 18 -7 32 -24 15 -16 23 -30 17 -30 -5 0
-8 -6 -6 -12 1 -7 1 -10 -1 -5 -3 4 -8 5 -12 3 -4 -3 -20 4 -37 15 -16 10 -23
19 -16 19 7 0 11 4 7 10 -3 5 -11 7 -18 4 -7 -2 -24 8 -37 23 l-25 28 29 -25
c20 -17 30 -21 33 -12z m477 13 c3 -5 -2 -15 -12 -22 -15 -12 -16 -12 -5 2 7
9 10 19 6 22 -3 4 -4 7 0 7 3 0 8 -4 11 -9z m-144 -41 c-20 -13 -33 -13 -25 0
3 6 14 10 23 10 15 0 15 -2 2 -10z m65 0 c-3 -5 1 -10 10 -10 9 0 14 4 11 8
-3 5 1 9 9 9 21 0 19 -3 -15 -27 -25 -18 -29 -19 -23 -4 4 12 3 15 -5 10 -7
-4 -12 -3 -12 3 0 5 6 12 13 14 18 8 19 8 12 -3z m-34 -27 c13 -15 12 -15 -8
-4 -24 12 -29 21 -14 21 5 0 15 -7 22 -17z m-226 -3 c4 -6 -1 -7 -12 -3 -16 6
-16 5 -4 -10 8 -10 11 -20 7 -24 -3 -3 -6 -1 -6 6 0 8 -7 11 -15 7 -16 -6 -16
14 0 26 14 10 23 10 30 -2z m209 -21 c-3 -5 -13 -9 -22 -8 -11 0 -13 2 -4 6
10 4 9 9 -5 19 -16 13 -15 13 9 3 15 -7 25 -16 22 -20z"/>
<path d="M6336 7721 c-4 -5 -2 -12 3 -15 5 -4 12 -2 15 3 4 5 2 12 -3 15 -5 4
-12 2 -15 -3z"/>
<path d="M12527 7489 c13 -12 31 -15 30 -4 -1 5 -10 10 -20 10 -10 1 -14 -2
-10 -6z"/>
</g>
</svg>
